<svg xmlns="http://www.w3.org/2000/svg" version="1.2" viewBox="0 0 48 48" preserveAspectRatio="xMidYMid meet" baseProfile="tiny-ps" xml:space="preserve"><title>Breethe</title><desc>Breethe brand logo</desc>
  <path d="M0 0 C3.5578125 -0.12375 3.5578125 -0.12375 7.1875 -0.25 C7.92508545 -0.28641602 8.6626709 -0.32283203 9.42260742 -0.36035156 C12.96873531 -0.41973304 14.90906325 -0.05533188 17.953125 1.796875 C20 4 20 4 20.5625 7.5 C19.89962447 11.62455887 19.34454101 12.57718289 16 15 C13.10550051 15.2906124 10.62050065 15.38186045 7.75 15.25 C6.63238281 15.22292969 6.63238281 15.22292969 5.4921875 15.1953125 C3.66090299 15.14835649 1.83028351 15.07661652 0 15 C0 10.05 0 5.1 0 0 Z" fill="#ffffff" transform="translate(15,25)"/>
  <path d="M0 0 C12.35611219 -0.49424449 12.35611219 -0.49424449 15.38671875 1.83203125 C17 4 17 4 17.5625 6.9375 C17 10 17 10 15.25 12.875 C10.21579984 16.16659241 5.93639972 15.32617581 0 15 C0 10.05 0 5.1 0 0 Z" fill="#ffffff" transform="translate(15,8)"/>
</svg>
